<svg width="24" height="24" viewBox="0 0 24 24" fill="none" xmlns="http://www.w3.org/2000/svg">
<path fill-rule="evenodd" clip-rule="evenodd" d="M3 2C2.58579 2 2.25 2.33579 2.25 2.75C2.25 3.16421 2.58579 3.5 3 3.5H4.18586L5.01653 7.50954C5.02034 7.53387 5.02532 7.55782 5.0314 7.58132L6.45122 14.4346L6.45127 14.4348C6.57315 15.0221 6.89025 15.5522 7.35408 15.931C7.81605 16.3083 8.39412 16.511 8.98989 16.4995H17.7665L17.7677 16.4995C18.354 16.4986 18.919 16.2907 19.3699 15.9154C19.8203 15.5406 20.1292 15.0221 20.2515 14.4481L20.2515 14.4479L21.7333 7.55021C21.7809 7.3287 21.7258 7.09756 21.5834 6.92133C21.441 6.74511 21.2266 6.64269 21 6.64269H6.3688L5.53081 2.59785C5.45868 2.24967 5.15198 2 4.79641 2H3ZM7.91998 14.1301L6.67956 8.14269H20.0718L18.7847 14.1342L18.7844 14.1355C18.7309 14.387 18.5969 14.6073 18.4104 14.7625C18.2245 14.9172 17.997 14.999 17.7657 14.9995L17.7652 14.9995L8.98204 14.9995L8.96479 14.9997C8.72837 15.0052 8.49425 14.9255 8.30289 14.7692C8.11101 14.6125 7.97349 14.3876 7.92003 14.1303L7.91998 14.1301ZM8.83333 19.8889C8.66457 19.8889 8.52777 20.0257 8.52777 20.1944C8.52777 20.3632 8.66457 20.5 8.83333 20.5C9.00208 20.5 9.13888 20.3632 9.13888 20.1944C9.13888 20.0257 9.00208 19.8889 8.83333 19.8889ZM7.02777 20.1944C7.02777 19.1973 7.83615 18.3889 8.83333 18.3889C9.83051 18.3889 10.6389 19.1973 10.6389 20.1944C10.6389 21.1916 9.83051 22 8.83333 22C7.83615 22 7.02777 21.1916 7.02777 20.1944ZM18.3333 19.8889C18.1646 19.8889 18.0278 20.0257 18.0278 20.1944C18.0278 20.3632 18.1646 20.5 18.3333 20.5C18.5021 20.5 18.6389 20.3632 18.6389 20.1944C18.6389 20.0257 18.5021 19.8889 18.3333 19.8889ZM16.5278 20.1944C16.5278 19.1973 17.3361 18.3889 18.3333 18.3889C19.3305 18.3889 20.1389 19.1973 20.1389 20.1944C20.1389 21.1916 19.3305 22 18.3333 22C17.3361 22 16.5278 21.1916 16.5278 20.1944Z" fill="#6E7672"/>
</svg>
