<svg width="24" height="24" viewBox="0 0 24 24" fill="none" xmlns="http://www.w3.org/2000/svg">
<path fill-rule="evenodd" clip-rule="evenodd" d="M2.95925 2.84708C3.48423 2.38009 4.20748 2.25 4.96765 2.25H8.53235C9.29252 2.25 10.0158 2.38009 10.5408 2.84708C11.0881 3.33399 11.25 4.03001 11.25 4.74909V8.75963C11.25 9.47815 11.0884 10.1753 10.5397 10.6615C10.0136 11.1276 9.2898 11.2544 8.53013 11.2499H4.96765C4.21015 11.2499 3.48618 11.123 2.96034 10.6571C2.41115 10.1705 2.25 9.47274 2.25 8.7508V4.74909C2.25 4.03001 2.41187 3.33399 2.95925 2.84708ZM3.9562 3.96784C3.87048 4.04408 3.75 4.22261 3.75 4.74909V8.7508C3.75 9.28325 3.8712 9.46006 3.9551 9.53439C4.06235 9.62942 4.3222 9.74989 4.96765 9.74989H8.53235H8.53708V9.7499C9.17943 9.75395 9.43843 9.63314 9.5449 9.53881C9.62927 9.46405 9.75 9.28667 9.75 8.75963V4.74909C9.75 4.22261 9.62952 4.04408 9.5438 3.96784C9.4357 3.87168 9.17513 3.75 8.53235 3.75H4.96765C4.32487 3.75 4.0643 3.87168 3.9562 3.96784ZM15.4676 2.25C14.7075 2.25 13.9842 2.38009 13.4592 2.84708C12.9119 3.33399 12.75 4.03001 12.75 4.74909V8.7508C12.75 9.47274 12.9111 10.1705 13.4603 10.6571C13.9862 11.123 14.7102 11.2499 15.4676 11.2499H19.0301C19.7898 11.2544 20.5136 11.1276 21.0397 10.6615C21.5884 10.1753 21.75 9.47815 21.75 8.75963V4.74909C21.75 4.03001 21.5881 3.33399 21.0408 2.84708C20.5158 2.38009 19.7925 2.25 19.0324 2.25H15.4676ZM14.25 4.74909C14.25 4.22261 14.3705 4.04408 14.4562 3.96784C14.5643 3.87168 14.8249 3.75 15.4676 3.75H19.0324C19.6751 3.75 19.9357 3.87168 20.0438 3.96784C20.1295 4.04408 20.25 4.22261 20.25 4.74909V8.75963C20.25 9.28667 20.1293 9.46405 20.0449 9.53881C19.9384 9.63314 19.6794 9.75395 19.0371 9.7499V9.74989H19.0324H15.4676C14.8222 9.74989 14.5624 9.62942 14.4551 9.53439C14.3712 9.46006 14.25 9.28325 14.25 8.7508V4.74909ZM15.4676 12.75C14.7075 12.75 13.9842 12.8801 13.4592 13.3471C12.9119 13.834 12.75 14.53 12.75 15.2491V19.2508C12.75 19.9727 12.9111 20.6705 13.4603 21.1571C13.9862 21.623 14.7102 21.7499 15.4676 21.7499H19.0301C19.7898 21.7544 20.5136 21.6276 21.0397 21.1615C21.5884 20.6753 21.75 19.9782 21.75 19.2596V15.2491C21.75 14.53 21.5881 13.834 21.0408 13.3471C20.5158 12.8801 19.7925 12.75 19.0324 12.75H15.4676ZM14.25 15.2491C14.25 14.7226 14.3705 14.5441 14.4562 14.4678C14.5643 14.3717 14.8249 14.25 15.4676 14.25H19.0324C19.6751 14.25 19.9357 14.3717 20.0438 14.4678C20.1295 14.5441 20.25 14.7226 20.25 15.2491V19.2596C20.25 19.7867 20.1293 19.964 20.0449 20.0388C19.9384 20.1331 19.6794 20.2539 19.0371 20.2499V20.2499H19.0324H15.4676C14.8222 20.2499 14.5624 20.1294 14.4551 20.0344C14.3712 19.9601 14.25 19.7833 14.25 19.2508V15.2491ZM4.96765 12.75C4.20748 12.75 3.48423 12.8801 2.95925 13.3471C2.41187 13.834 2.25 14.53 2.25 15.2491V19.2508C2.25 19.9727 2.41115 20.6705 2.96034 21.1571C3.48618 21.623 4.21015 21.7499 4.96765 21.7499H8.53013C9.2898 21.7544 10.0136 21.6276 10.5397 21.1615C11.0884 20.6753 11.25 19.9782 11.25 19.2596V15.2491C11.25 14.53 11.0881 13.834 10.5408 13.3471C10.0158 12.8801 9.29252 12.75 8.53235 12.75H4.96765ZM3.75 15.2491C3.75 14.7226 3.87048 14.5441 3.9562 14.4678C4.0643 14.3717 4.32487 14.25 4.96765 14.25H8.53235C9.17513 14.25 9.4357 14.3717 9.5438 14.4678C9.62952 14.5441 9.75 14.7226 9.75 15.2491V19.2596C9.75 19.7867 9.62927 19.964 9.5449 20.0388C9.43843 20.1331 9.17943 20.2539 8.53708 20.2499V20.2499H8.53235H4.96765C4.3222 20.2499 4.06235 20.1294 3.9551 20.0344C3.8712 19.9601 3.75 19.7833 3.75 19.2508V15.2491Z" fill="#6E7672"/>
</svg>
