<svg width="24" height="24" viewBox="0 0 24 24" fill="none" xmlns="http://www.w3.org/2000/svg">
<path fill-rule="evenodd" clip-rule="evenodd" d="M11.3986 2.99602C11.7267 2.66799 12.2733 2.66799 12.6014 2.99603L14.1237 4.51833C14.3438 4.73848 14.6299 4.90386 14.895 5.01379C15.1598 5.12355 15.4775 5.20867 15.7857 5.20867H17.9389C18.406 5.20867 18.7913 5.59394 18.7913 6.06105V8.2143C18.7913 8.52243 18.8764 8.84024 18.9862 9.10497C19.0961 9.37011 19.2615 9.65618 19.4817 9.87633L21.004 11.3986C21.332 11.7267 21.332 12.2733 21.004 12.6014L19.4817 14.1237C19.2615 14.3438 19.0961 14.6299 18.9862 14.895C18.8764 15.1598 18.7913 15.4776 18.7913 15.7857V17.9388C18.7913 18.406 18.4059 18.7913 17.9389 18.7913H15.7857C15.4775 18.7913 15.1598 18.8764 14.895 18.9862C14.6299 19.0961 14.3438 19.2615 14.1237 19.4817L12.6014 21.004C12.2733 21.332 11.7266 21.332 11.3986 21.004L9.87635 19.4817L9.35729 20.0007L9.87634 19.4817C9.65618 19.2615 9.3701 19.0961 9.10495 18.9862C8.84022 18.8764 8.52242 18.7913 8.21431 18.7913H6.06109C5.59403 18.7913 5.20868 18.406 5.20868 17.9388V15.7857C5.20868 15.4749 5.12473 15.1551 5.01378 14.8875C4.90449 14.624 4.73857 14.3376 4.51391 14.1193L2.99603 12.6014L2.99603 12.6014C2.66799 12.2733 2.66799 11.7267 2.99603 11.3986L2.99603 11.3986L4.5183 9.87633L4.5183 9.87632C4.73845 9.65617 4.90384 9.37011 5.01378 9.10497C5.12354 8.84024 5.20868 8.52243 5.20868 8.2143V6.06105C5.20868 5.59396 5.59396 5.20867 6.06109 5.20867H8.21431C8.52242 5.20867 8.84022 5.12356 9.10495 5.0138C9.3701 4.90387 9.65618 4.73849 9.87634 4.51833L9.87635 4.51832L11.3986 2.99603L11.3986 2.99602ZM13.662 1.93537C12.7482 1.02154 11.2518 1.02154 10.338 1.93537L10.3379 1.93537L8.81568 3.45767L8.81568 3.45767C8.77544 3.4979 8.67595 3.56785 8.53048 3.62817C8.3846 3.68865 8.26673 3.70867 8.21431 3.70867H6.06109C4.76557 3.70867 3.70868 4.7655 3.70868 6.06105V8.2143C3.70868 8.26671 3.68865 8.38456 3.62816 8.53044C3.56784 8.67592 3.49788 8.77543 3.45764 8.81567L3.45763 8.81567L1.93537 10.338C1.02154 11.2518 1.02154 12.7482 1.93537 13.662L3.45763 15.1843L3.46814 15.1946C3.50076 15.226 3.56818 15.3174 3.62816 15.462C3.68746 15.6051 3.70868 15.726 3.70868 15.7857V17.9388C3.70868 19.2343 4.7655 20.2913 6.06109 20.2913H8.21431C8.26673 20.2913 8.3846 20.3114 8.53048 20.3718C8.67595 20.4321 8.77545 20.5021 8.81568 20.5423L10.3379 22.0646L10.8452 21.5574L10.338 22.0646C11.2518 22.9785 12.7482 22.9785 13.662 22.0646L15.1843 20.5423C15.2246 20.5021 15.324 20.4321 15.4695 20.3718C15.6154 20.3113 15.7332 20.2913 15.7857 20.2913H17.9389C19.2345 20.2913 20.2913 19.2343 20.2913 17.9388V15.7857C20.2913 15.7333 20.3113 15.6154 20.3718 15.4696C20.4321 15.3241 20.5021 15.2246 20.5423 15.1843L22.0646 13.662C22.9785 12.7482 22.9785 11.2518 22.0646 10.338L20.5423 8.81567C20.5021 8.77543 20.4321 8.67592 20.3718 8.53044C20.3113 8.38456 20.2913 8.26671 20.2913 8.2143V6.06105C20.2913 4.76551 19.2344 3.70867 17.9389 3.70867H15.7857C15.7332 3.70867 15.6154 3.68865 15.4695 3.62817C15.324 3.56786 15.2246 3.4979 15.1843 3.45767L13.662 1.93537ZM15.5303 9.53033C15.8232 9.23744 15.8232 8.76256 15.5303 8.46967C15.2374 8.17678 14.7626 8.17678 14.4697 8.46967L8.46967 14.4697C8.17678 14.7626 8.17678 15.2374 8.46967 15.5303C8.76256 15.8232 9.23744 15.8232 9.53033 15.5303L15.5303 9.53033ZM13.7445 14.5C13.7445 14.0858 14.0803 13.75 14.4945 13.75H14.5035C14.9177 13.75 15.2535 14.0858 15.2535 14.5C15.2535 14.9142 14.9177 15.25 14.5035 15.25H14.4945C14.0803 15.25 13.7445 14.9142 13.7445 14.5ZM9.49451 8.75C9.08029 8.75 8.74451 9.08579 8.74451 9.5C8.74451 9.91421 9.08029 10.25 9.49451 10.25H9.50349C9.9177 10.25 10.2535 9.91421 10.2535 9.5C10.2535 9.08579 9.9177 8.75 9.50349 8.75H9.49451Z" fill="#6E7672"/>
</svg>
