<svg width="16" height="16" viewBox="0 0 16 16" fill="none" xmlns="http://www.w3.org/2000/svg">
<path fill-rule="evenodd" clip-rule="evenodd" d="M2.56543 7.59632C2.56543 4.81784 4.81784 2.56543 7.59632 2.56543C10.3748 2.56543 12.6272 4.81784 12.6272 7.59632C12.6272 10.3748 10.3748 12.6272 7.59632 12.6272C4.81784 12.6272 2.56543 10.3748 2.56543 7.59632ZM7.59632 1.06543C3.98941 1.06543 1.06543 3.98941 1.06543 7.59632C1.06543 11.2032 3.98941 14.1272 7.59632 14.1272C9.05291 14.1272 10.3981 13.6504 11.4844 12.8443L13.3538 14.7088C13.6471 15.0013 14.122 15.0007 14.4145 14.7075C14.707 14.4142 14.7064 13.9393 14.4131 13.6468L12.5795 11.818C13.5449 10.6795 14.1272 9.20592 14.1272 7.59632C14.1272 3.98941 11.2032 1.06543 7.59632 1.06543Z" fill="#6E7672"/>
</svg>
